<svg id="Layer_1" enable-background="new 0 0 512 512" height="512" viewBox="0 0 512 512" width="512" xmlns="http://www.w3.org/2000/svg"><g><g><path d="m276.806 452h-41.613c-5.523 0-10 4.478-10 10s4.477 10 10 10h41.613c5.523 0 10-4.478 10-10s-4.477-10-10-10z"/><path d="m456 80.001h-60v-21.722c11.639-4.128 20-15.243 20-28.28 0-16.542-13.458-29.999-30-29.999h-260c-16.542 0-30 13.458-30 30 0 13.036 8.361 24.151 20 28.279v21.722h-60c-5.523 0-10 4.478-10 10v70c0 44.112 35.888 80 80 80h8.354c10.34 18.075 24.769 33.876 42.583 46.112v14.638c0 16.542 13.458 29.999 30 29.999h11.451c-12.066 39.762-33.286 81.25-58.388 81.25h-24c-5.043 0-9.297 3.755-9.923 8.76l-10 80c-.356 2.846.528 5.708 2.426 7.858s4.629 3.382 7.497 3.382h260c2.868 0 5.599-1.231 7.497-3.382 1.898-2.15 2.782-5.013 2.426-7.858l-10-80c-.625-5.005-4.879-8.76-9.923-8.76h-24c-15.309 0-28.244-16.076-36.399-29.562-10.268-16.98-17.5-36.917-21.986-51.688h11.447c16.542 0 30-13.457 30-29.999v-14.638c17.814-12.237 32.243-28.037 42.583-46.112h8.355c44.112 0 80-35.888 80-80v-70c0-5.522-4.477-10-10-10zm-390 80v-60h50v70.749c0 17.122 3.105 33.741 8.931 49.224-32.591-.575-58.931-27.248-58.931-59.973zm308.672 331.999h-237.345l7.5-60h222.345zm-76.185-99.212c4.514 7.464 9.216 13.867 14.091 19.212h-113.156c4.859-5.326 9.545-11.705 14.045-19.137 12.782-21.11 21.173-45.982 25.762-62.113h33.541c4.594 16.149 12.968 40.956 25.717 62.038zm16.576-92.037c0 5.514-4.486 9.999-10 9.999h-98.126c-5.514 0-10-4.485-10-9.999v-10.001h118.126zm7.015-30.001h-132.156c-33.814-22.441-53.922-59.607-53.922-100v-110.751h74.997c5.523 0 10-4.478 10-10s-4.477-10-10-10h-84.997c-5.514 0-10-4.486-10-10s4.486-9.999 10-9.999h260c5.514 0 10 4.486 10 10s-4.486 9.999-10 9.999h-85.003c-5.523 0-10 4.478-10 10s4.477 10 10 10h75.003v110.751c0 40.393-20.108 77.559-53.922 100zm123.922-110.749c0 32.725-26.34 59.398-58.931 59.973 5.825-15.483 8.931-32.101 8.931-49.224v-70.749h50z"/><path d="m256 110.002c-16.542 0-30 13.458-30 30v39.999c0 5.522 4.477 10 10 10s10-4.478 10-10v-10.001h19.999v10.001c0 5.522 4.477 10 10 10s10-4.478 10-10v-39.999c.001-16.542-13.457-30-29.999-30zm9.999 39.998h-19.999v-9.998c0-5.514 4.486-10 10-10s10 4.486 10 10z"/><path d="m180.999 110.002h-20c-5.523 0-10 4.478-10 10v59.999c0 5.522 4.477 10 10 10h20c16.542 0 30-13.458 30-30v-19.999c0-16.542-13.458-30-30-30zm10 49.999c0 5.514-4.486 10-10 10h-10v-39.999h10c5.514 0 10 4.486 10 10z"/><path d="m331.001 110.002h-20c-5.523 0-10 4.478-10 10v59.999c0 5.522 4.477 10 10 10h20c16.542 0 30-13.458 30-30v-19.999c0-16.542-13.458-30-30-30zm10 49.999c0 5.514-4.486 10-10 10h-10v-39.999h10c5.514 0 10 4.486 10 10z"/><path d="m256 59.999c5.523 0 10-4.478 10-10s-4.477-10-10-10h-.007c-5.523 0-9.996 4.478-9.996 10s4.48 10 10.003 10z"/></g></g></svg>