<svg height="512" viewBox="0 0 64 64" width="512" xmlns="http://www.w3.org/2000/svg"><g id="quality"><path d="m24 16h16v2h-16z"/><path d="m15 50h4v2h-4z"/><path d="m45 54h4v2h-4z"/><path d="m15 54h28v2h-28z"/><path d="m32 36a5 5 0 1 0 -5-5 5.006 5.006 0 0 0 5 5zm0-8a3 3 0 1 1 -3 3 3 3 0 0 1 3-3z"/><path d="m16.331 40.484 5.569.616.613 5.573a1 1 0 0 0 .662.834.974.974 0 0 0 .332.057 1 1 0 0 0 .707-.293l6.061-6.061a2.264 2.264 0 0 0 3.444 0l6.061 6.061a1 1 0 0 0 .707.293.974.974 0 0 0 .332-.057 1 1 0 0 0 .662-.834l.619-5.573 5.572-.612a1 1 0 0 0 .6-1.7l-6.061-6.061a2.481 2.481 0 0 0 .789-1.727c0-1.176-.975-1.947-1.759-2.566a3.907 3.907 0 0 1 -.924-.879 3.876 3.876 0 0 1 .02-1.347c.114-1.023.244-2.184-.559-2.986s-1.964-.673-2.985-.559a3.882 3.882 0 0 1 -1.348.02 3.936 3.936 0 0 1 -.879-.925c-.619-.783-1.39-1.758-2.566-1.758s-1.947.976-2.567 1.759a3.946 3.946 0 0 1 -.877.924 3.887 3.887 0 0 1 -1.349-.02c-1.021-.113-2.183-.244-2.985.559s-.673 1.963-.559 2.986a3.876 3.876 0 0 1 .02 1.347 3.907 3.907 0 0 1 -.924.879c-.784.619-1.759 1.39-1.759 2.566a2.481 2.481 0 0 0 .794 1.722l-6.061 6.061a1 1 0 0 0 .6 1.7zm24.75-1.284a1 1 0 0 0 -.885.885l-.472 4.3-4.7-4.7a1.525 1.525 0 0 1 .417-.366 3.888 3.888 0 0 1 1.349.02c1.022.115 2.183.245 2.985-.559s.673-1.963.559-2.986a3.876 3.876 0 0 1 -.02-1.347 1.5 1.5 0 0 1 .365-.418l4.7 4.7zm-17.081-9.2a4.565 4.565 0 0 0 1.531-1.681 4.721 4.721 0 0 0 .12-2.335 3.841 3.841 0 0 1 -.018-1.347 3.667 3.667 0 0 1 1.353.012 4.713 4.713 0 0 0 2.336-.121 4.571 4.571 0 0 0 1.678-1.528c.257-.325.79-1 1-1s.741.675 1 1a4.565 4.565 0 0 0 1.681 1.531 4.715 4.715 0 0 0 2.336.121 3.787 3.787 0 0 1 1.346-.018 3.685 3.685 0 0 1 -.011 1.353 4.721 4.721 0 0 0 .12 2.335 4.565 4.565 0 0 0 1.528 1.678c.324.257 1 .79 1 1s-.675.741-1 1a4.565 4.565 0 0 0 -1.531 1.681 4.721 4.721 0 0 0 -.12 2.335 3.841 3.841 0 0 1 .018 1.347 3.667 3.667 0 0 1 -1.353-.012 4.749 4.749 0 0 0 -2.336.121 4.571 4.571 0 0 0 -1.678 1.528c-.257.325-.79 1-1 1s-.741-.675-1-1a4.565 4.565 0 0 0 -1.681-1.531 3.072 3.072 0 0 0 -1.188-.207 10.574 10.574 0 0 0 -1.148.086 3.835 3.835 0 0 1 -1.346.018 3.685 3.685 0 0 1 .011-1.353 4.721 4.721 0 0 0 -.12-2.335 4.565 4.565 0 0 0 -1.528-1.678c-.324-.257-1-.79-1-1s.675-.741 1-1zm-.681 4.025a1.5 1.5 0 0 1 .365.418 3.876 3.876 0 0 1 -.02 1.347c-.114 1.023-.244 2.184.559 2.986s1.962.673 2.985.559a3.881 3.881 0 0 1 1.348-.02 1.526 1.526 0 0 1 .418.366l-4.7 4.7-.472-4.3a1 1 0 0 0 -.885-.885l-4.3-.472z"/><path d="m58.28 15 3.5-4.375a1 1 0 0 0 -.78-1.625h-8v-6a1 1 0 0 0 -1-1h-40a1 1 0 0 0 -1 1v6h-8a1 1 0 0 0 -.781 1.625l3.501 4.375-3.5 4.375a1 1 0 0 0 .78 1.625h8v40a1 1 0 0 0 1 1h40a1 1 0 0 0 1-1v-40h8a1 1 0 0 0 .781-1.625zm-53.2 4 2.7-3.375a1 1 0 0 0 0-1.25l-2.699-3.375h5.919v8zm45.92 41h-38v-56h38zm2-41v-8h5.919l-2.7 3.375a1 1 0 0 0 0 1.25l2.7 3.375z"/><path d="m39 9h4v2h-4z"/><path d="m21 9h4v2h-4z"/><path d="m21 50h28v2h-28z"/><path d="m30 14h4a3 3 0 0 0 3-3v-2a3 3 0 0 0 -3-3h-4a3 3 0 0 0 -3 3v2a3 3 0 0 0 3 3zm-1-5a1 1 0 0 1 1-1h4a1 1 0 0 1 1 1v2a1 1 0 0 1 -1 1h-4a1 1 0 0 1 -1-1z"/></g></svg>