<svg height="512pt" viewBox="0 0 512.0005 512" width="512pt" xmlns="http://www.w3.org/2000/svg"><path d="m502.738281 174.117188c-5.605469-2.320313-12.058593-1.035157-16.347656 3.253906l-24.472656 24.46875c-12.222657 12.222656-40.050781 10.078125-43.605469-8.011719-2.105469-10.730469 7.394531-19.273437 17.675781-21.433594 20.117188-4.21875 37.4375-14.824219 48.773438-29.867187 12.058593-16 16.476562-35.917969 12.445312-56.082032l-9.980469-49.90625c-1.335937-6.667968-6.988281-11.605468-13.777343-12.027343-6.800781-.429688-13.011719 3.773437-15.164063 10.226562-13.011718 39.035157-44.6875 50.472657-68.96875 53.195313-5.894531.65625-11.601562-2.519532-14.457031-7.769532l6.511719-63.636718c.519531-5.066406-1.566406-10.046875-5.542969-13.234375-3.976563-3.183594-9.292969-4.132813-14.121094-2.523438-44.277343 14.761719-62.136719 49.332031-69.316406 75.730469-3.175781 11.675781-15.425781 18.140625-26.246094 12.730469-11.261719-5.628907-13.691406-20.605469-4.789062-29.507813l9.636719-9.632812c4.289062-4.292969 5.570312-10.742188 3.25-16.347656-2.320313-5.605469-7.789063-9.261719-13.859376-9.261719-56.855468 0-106.195312 38.523437-119.984374 93.683593l-17.339844 69.355469c-27.425782 7.148438-53.359375 21.433594-74.808594 42.882813-64.332031 64.332031-64.332031 169.011718 0 233.34375 64.335938 64.332031 169.011719 64.335937 233.347656 0 17.847656-17.847656 30.738282-38.804688 38.683594-61.144532l20.066406 2.867188c45.457032 6.5 89.328125-20.316406 103.972656-64.257812 2.621094-7.859376-1.625-16.355469-9.484374-18.972657l-18.023438-6.007812c8.894531-10.28125 21.675781-18.492188 38.117188-24.464844 33.601562-12.210937 57.070312-43.8125 57.070312-76.847656v-26.941407c-.003906-6.066406-3.65625-11.535156-9.261719-13.859374zm-242.355469 268.421874c-52.636718 52.632813-138.28125 52.636719-190.921874 0-52.636719-52.640624-52.636719-138.285156 0-190.921874 52.640624-52.636719 138.285156-52.636719 190.921874 0 52.636719 52.636718 52.636719 138.285156 0 190.921874zm184.296876-178.96875c-26.230469 9.535157-45.816407 24.078126-58.21875 43.226563-1.730469 2.671875-7 10.808594-3.660157 20.335937 3.273438 9.339844 12.203125 13.453126 21.367188 16.507813l5.300781 1.769531c-13.398438 21.730469-38.671875 34.105469-64.878906 30.363282l-16.84375-2.40625c8.089844-50.519532-7.289063-104.101563-46.152344-142.964844-34.621094-34.621094-80.929688-50.597656-126.34375-47.957032l14.25-57.003906c7.652344-30.617187 29.769531-54.46875 57.988281-65.023437-5.453125 20.835937 3.449219 44.753906 25.234375 55.648437 27.472656 13.734375 60.375-1.417968 68.613282-31.6875 5.101562-18.761718 14.273437-33.269531 27.371093-43.363281l-4.082031 39.882813c-.21875 2.113281.019531 4.253906.691406 6.269531 6.679688 20.042969 26.59375 32.90625 47.335938 30.578125 19.621094-2.195313 50.398437-9.964844 73.035156-35.898438l2.097656 10.484375c4.832032 24.152344-10.777344 45.003907-37.957031 50.703125-26.820313 5.628906-46.21875 29.769532-40.953125 56.574219 7.960938 40.566406 61.371094 52.265625 91.835938 25.707031-4.535157 18.207032-20.367188 32.5625-36.03125 38.253906zm0 0"/><path d="m239.167969 272.832031c-40.929688-40.929687-107.558594-40.933593-148.492188 0-40.921875 40.921875-40.941406 107.550781 0 148.492188 41.246094 41.25 108.308594 40.617187 148.925781 0 39.464844-39.464844 41.523438-106.535157-.433593-148.492188zm-11.496094 115.347657-22.003906-22.015626c.636719-1.367187 1.207031-2.757812 1.703125-4.171874h31.070312c-1.878906 9.355468-5.527344 18.222656-10.769531 26.1875zm-125.324219-82.460938 21.953125 21.949219c-.675781 1.414062-1.28125 2.859375-1.800781 4.335937h-31.011719c1.878907-9.226562 5.492188-18.167968 10.859375-26.285156zm51.96875 30.75c2.921875-2.921875 6.765625-4.382812 10.605469-4.382812s7.683594 1.460937 10.605469 4.382812c5.847656 5.851562 5.847656 15.367188 0 21.214844-5.101563 5.101562-14.660156 6.550781-21.214844 0-5.847656-5.847656-5.847656-15.363282.003906-21.214844zm30.011719-30.011719c-1.410156-.675781-2.855469-1.277343-4.332031-1.804687v-31.007813c9.226562 1.878907 18.167968 5.492188 26.285156 10.859375zm-34.332031-1.851562c-1.527344.535156-3.023438 1.152343-4.484375 1.851562l-21.949219-21.953125c8.160156-5.394531 17.152344-9.019531 26.433594-10.890625zm-58.539063 57.398437h30.992188c.535156 1.527344 1.152343 3.023438 1.851562 4.480469l-21.953125 21.953125c-5.394531-8.160156-9.019531-17.152344-10.890625-26.433594zm54.074219 25.675782c1.460938.695312 2.949219 1.316406 4.464844 1.84375v31.019531c-9.28125-1.871094-18.273438-5.496094-26.433594-10.894531zm34.464844 1.789062c1.5625-.550781 3.097656-1.203125 4.605468-1.933594l21.9375 21.9375c-8.1875 5.464844-17.21875 9.140625-26.542968 11.039063zm27.316406-57.464844c-.515625-1.460937-1.117188-2.902344-1.789062-4.316406l21.980468-21.976562c5.304688 7.992187 8.996094 16.890624 10.90625 26.292968zm0 0"/></svg>