<svg height="512" viewBox="0 0 60 41" width="512" xmlns="http://www.w3.org/2000/svg"><g id="Page-1" fill="none" fill-rule="evenodd"><g id="022---Financial-Freedom" fill="rgb(0,0,0)" fill-rule="nonzero"><path id="Shape" d="m29.077 10.035c.6144356-.04700672 1.2315644-.04700672 1.846 0h.078c.5522847.0209868 1.0170131-.40971527 1.0379999-.962.0209869-.55228473-.4097152-1.01701315-.9619999-1.038-.7169467-.05500145-1.4370533-.05500145-2.154 0-.5472316.046601-.9544709.5258145-.9121803 1.07339607.0422907.54758157.5182827.95858163 1.0661803.92060393z"/><path id="Shape" d="m22.654 12.274c.2004377-.0000405.396238-.0603135.562-.173.2533333-.1726667.5146667-.3373333.784-.494s.542-.3003333.818-.431c.3403309-.1432048.5740573-.4622926.607937-.8299677.0338798-.36767503-.1376007-.724101-.4460316-.92708657-.3084309-.20298558-.7036175-.21949641-1.0279054-.04294573-.321.154-.639.322-.951.5s-.618.373-.912.573c-.3625434.2474021-.521385.702293-.3916452 1.1215937s.5177316.7049906.9566452.7044063z"/><path id="Shape" d="m18.448 14.089c-.2.294-.392.6-.572.911s-.349.631-.5.952c-.2066464.4911019.0080503 1.0579806.4881802 1.2889765.48013.2309958 1.0570549.0449751 1.3118198-.4229765.133-.276.276-.548.432-.819s.32-.53.493-.783c.3112124-.4564633.1934633-1.0787875-.263-1.39-.4564634-.3112124-1.0787875-.1934633-1.39.263z"/><path id="Shape" d="m18.035 22.923c-.0233333-.304-.035-.6116667-.035-.923s.0116667-.619.035-.923c.0304734-.3578465-.1332877-.7045529-.4290289-.9083172s-.6780385-.2332898-1.0015601-.0773522c-.3235215.1559376-.5385766.4733874-.563411.8316694-.0273333.356-.041.715-.041 1.077s.0136667.721.041 1.077c.040312.5220085.4764396.9245542 1 .923h.078c.5502826-.0445939.9603146-.5266948.916-1.077z"/><path id="Shape" d="m19.607 28c-.1546667-.27-.2983333-.5426667-.431-.818-.1432048-.3403309-.4622926-.5740573-.8299677-.607937-.367675-.0338798-.724101.1376007-.9270866.4460316-.2029855.3084309-.2194964.7036175-.0429457 1.0279054.154.321.322.639.5.951s.373.618.573.912c.3184377.4359508.9254165.5404444 1.3713031.2360749.4458865-.3043696.5696886-.9077064.2796969-1.3630749-.172-.256-.3363333-.5173333-.493-.784z"/><path id="Shape" d="m24.818 32.824c-.276-.133-.548-.276-.819-.432s-.53-.32-.783-.493c-.4564633-.3112124-1.0787875-.1934633-1.3899999.263-.3112125.4564634-.1934634 1.0787875.2629999 1.39.294.2.6.392.911.572s.631.349.952.5c.3242879.1765507.7194745.1600398 1.0279054-.0429457.3084309-.2029856.4799114-.5594116.4460316-.9270866-.0338797-.3676751-.2676061-.6867629-.607937-.8299677z"/><path id="Shape" d="m30.923 33.965c-.6144356.0470067-1.2315644.0470067-1.846 0-.3578465-.0304734-.7045529.1332877-.9083172.4290289s-.2332898.6780385-.0773522 1.0015601c.1559376.3235215.4733874.5385766.8316694.563411.356.0273333.715.041 1.077.041s.721-.0136667 1.077-.041c.358282-.0248344.6757318-.2398895.8316694-.563411.1559376-.3235216.1264121-.7058189-.0773522-1.0015601s-.5504707-.4595023-.9083172-.4290289z"/><path id="Shape" d="m36.784 31.9c-.2533333.1733333-.5146667.338-.784.494s-.542.2996667-.818.431c-.3403309.1432048-.5740573.4622926-.607937.8299677-.0338798.367675.1376007.724101.4460316.9270866.3084309.2029855.7036175.2194964 1.0279054.0429457.321-.154.639-.322.951-.5s.618-.373.912-.573c.4474589-.3144253.5593392-.9299803.2511402-1.3817503-.308199-.4517699-.9221458-.5721633-1.3781402-.2702497z"/><path id="Shape" d="m42.159 26.713c-.2392026-.1149887-.5143051-.1301706-.7647082-.0422013-.250403.0879693-.4555646.2718732-.5702918.5112013-.133.276-.276.548-.432.819s-.32.53-.493.783c-.3112124.4564633-.1934633 1.0787875.263 1.39.4564634.3112124 1.0787875.1934633 1.39-.263.2-.294.392-.6.572-.911s.349-.631.5-.952c.2400127-.4970696.0318834-1.0946021-.465-1.335z"/><path id="Shape" d="m41.965 21.077c.0233333.304.035.6116667.035.923s-.0116667.619-.035.923c-.0212488.264914.0638294.52739.2364467.7294647.1726173.2020748.4185734.3271249.6835533.3475353h.078c.5235604.0015542.959688-.4009915 1-.923.0246667-.356.037-.715.037-1.077s-.0136667-.721-.041-1.077c-.046601-.5472316-.5258145-.9544709-1.0733961-.9121803-.5475815.0422907-.9585816.5182827-.9206039 1.0661803z"/><path id="Shape" d="m40.162 13.827c-.4559985.3110599-.5737155.9327668-.263 1.389.1733333.2533333.338.5146667.494.784s.2996667.542.431.818c.1432048.3403309.4622926.5740573.8299677.607937.367675.0338798.724101-.1376007.9270866-.4460316.2029855-.3084309.2194964-.7036175.0429457-1.0279054-.154-.321-.322-.639-.5-.951s-.373-.618-.573-.912c-.3113788-.4556567-.9330267-.572915-1.389-.262z"/><path id="Shape" d="m37 9.876c-.3133333-.18066667-.6306667-.34733333-.952-.5-.3242879-.17655068-.7194745-.16003985-1.0279054.04294573-.3084309.20298557-.4799114.55941154-.4460316.92708657.0338797.3676751.2676061.6867629.607937.8299677.276.133.548.276.819.432s.53.32.783.493c.4564633.3112124 1.0787875.1934633 1.39-.263.3112124-.4564634.1934633-1.0787875-.263-1.39-.294-.2-.598-.392-.911-.572z"/><path id="Shape" d="m59.988 4.3c.0834648-1.10972993-.2991542-2.2040659-1.0559088-3.02002502-.7567547-.81595913-1.8192269-1.27977073-2.9320912-1.27997498h-13.64c-1.1534109-.00149332-2.2513259.49497422-3.012 1.362l-3.256 3.722c-3.9327387-1.44535907-8.2512613-1.44535907-12.184 0l-3.257-3.724c-.7612088-.86548375-1.8583943-1.36105738-3.011-1.36h-13.64c-1.9506057-.01078456-3.62111459 1.39473197-3.9440933 3.31844288-.32297872 1.92371091.79691907 3.7977188 2.6440933 4.42455712-.51196356.7458027-.75429948 1.64389184-.687 2.546.1727369 1.9059011 1.65082772 3.4335392 3.55 3.669-.41912568.7017435-.6108925 1.5159665-.549 2.331.20289661 2.13249 2.01322306 3.7493664 4.155 3.711h2.949c-.7915847 6.8791403 2.4331394 13.6024643 8.2934021 17.291163s13.3169331 3.6886987 19.1771958 0 9.0849868-10.4120227 8.2934021-17.291163h2.949c2.1386964.0399061 3.9486826-1.5710992 4.157-3.7.0621343-.817402-.1299709-1.6340239-.55-2.338 1.8973452-.2337801 3.3752487-1.7583104 3.55-3.662.0690623-.90400703-.1729873-1.80445986-.686-2.552 1.4985286-.51686863 2.5514947-1.86855402 2.686-3.448zm-50.819 13.7c-1.09084784.0291753-2.02615008-.7733771-2.163-1.856-.04725868-.5795411.16564212-1.1500859.581-1.557.37331516-.3771005.88237158-.5885769 1.413-.587h2c.5522847 0 1-.4477153 1-1s-.4477153-1-1-1h-4.831c-1.09050996.0292312-2.02568014-.7727756-2.163-1.855-.04725718-.5796448.16520571-1.1503641.58-1.558.3737502-.37706315.88309176-.58850834 1.414-.587h9c.5522847 0 1-.44771525 1-1s-.4477153-1-1-1h-10.831c-1.09067677.02970138-2.02611939-.77253906-2.163-1.855-.04725718-.5796448.16520571-1.1503641.58-1.558.3737502-.37706315.88309176-.58850834 1.414-.587h13.64c.5763851-.00088083 1.1253282.2460889 1.507.678l2.828 3.233c-4.8151545 2.40887583-8.3030407 6.8421695-9.511 12.089zm20.831 20c-8.836556 0-16-7.163444-16-16s7.163444-16 16-16 16 7.163444 16 16c-.0104696 8.8322157-7.1677843 15.9895304-16 16zm25.831-32h-10.831c-.5522847 0-1 .44771525-1 1s.4477153 1 1 1h9c.5564457.00035934 1.0875864.23252207 1.4657763.64069398.37819.40817191.5692355.95544841.5272237 1.51030602-.1400965 1.079443-1.0738914 1.8780492-2.162 1.849h-4.831c-.5522847 0-1 .4477153-1 1s.4477153 1 1 1h2c.5305396-.0011286 1.0394299.2102787 1.413.587.4161542.4095895.6283655.9831831.579 1.565-.1396553 1.0791264-1.0732748 1.8775202-2.161 1.848h-3.3c-1.2079593-5.2468305-4.6958455-9.68012417-9.511-12.089l2.827-3.231c.3825284-.43444436.9341526-.68236533 1.513-.68h13.64c.5566334.00033832 1.0879444.23263681 1.4661672.64103401.3782229.40839719.569137.95594242.5268328 1.51096599-.1401283 1.07928062-1.0740625 1.8775741-2.162 1.848z"/><path id="Shape" d="m31 21.1v-5.916c1.1943509.4222546 1.9947486 1.5492146 2 2.816 0 .5522847.4477153 1 1 1s1-.4477153 1-1c-.0029983-2.3751008-1.6735832-4.4215673-4-4.9v-.1c0-.5522847-.4477153-1-1-1s-1 .4477153-1 1v.1c-2.330324.4731925-4.0050126 2.5221184-4.0050126 4.9s1.6746886 4.4268075 4.0050126 4.9v5.917c-1.1946951-.4223781-1.9951701-1.5498471-2-2.817 0-.5522847-.4477153-1-1-1s-1 .4477153-1 1c.0029983 2.3751008 1.6735832 4.4215673 4 4.9v.1c0 .5522847.4477153 1 1 1s1-.4477153 1-1v-.1c2.330324-.4731925 4.0050126-2.5221184 4.0050126-4.9s-1.6746886-4.4268075-4.0050126-4.9zm-4-3.1c.0052514-1.2667854.8056491-2.3937454 2-2.816v5.632c-1.1943509-.4222546-1.9947486-1.5492146-2-2.816zm4 10.816v-5.632c1.1981296.4174114 2.0009455 1.5472421 2.0009455 2.816s-.8028159 2.3985886-2.0009455 2.816z"/></g></g></svg>