<?xml version="1.0"?>
<svg xmlns="http://www.w3.org/2000/svg" viewBox="0 0 512 512" width="512" height="512"><g id="Outline"><path d="M321.5,62.5A158.777,158.777,0,0,0,56.747,130.51L16.317,269.77A8,8,0,0,0,24,280H72v88a48.02,48.02,0,0,0,28.8,44l6.406-14.661A32.022,32.022,0,0,1,88,368V272a8,8,0,0,0-8-8H34.653L72.112,134.971A142.775,142.775,0,0,1,310.183,73.817Z"/><path d="M440.62,80a55.592,55.592,0,0,0-34.6,12.135L392,103.355V96a47.774,47.774,0,0,0-2.752-16H404.8a56.063,56.063,0,0,0,56-56,8,8,0,0,0-8-8H424a56.092,56.092,0,0,0-53.635,39.917A47.717,47.717,0,0,0,344,48V64a32.036,32.036,0,0,1,32,32v7.355l-14.024-11.22A55.381,55.381,0,0,0,272,135.38v8.665A224.487,224.487,0,0,0,300.181,252.8a52.884,52.884,0,0,0,75.564,18.319l8.255-5.5,8.255,5.5a52.886,52.886,0,0,0,75.564-18.32A224.487,224.487,0,0,0,496,144.045V135.38A55.443,55.443,0,0,0,440.62,80ZM424,32h20a40.071,40.071,0,0,1-39.2,32h-20A40.071,40.071,0,0,1,424,32Zm56,112.045a208.45,208.45,0,0,1-26.167,100.983,36.886,36.886,0,0,1-52.7,12.778l-12.693-8.462a8,8,0,0,0-8.875,0l-12.692,8.461a36.884,36.884,0,0,1-52.7-12.777A208.45,208.45,0,0,1,288,144.045V135.38a39.38,39.38,0,0,1,63.98-30.751L379,126.247a8,8,0,0,0,10,0l27.021-21.618A39.381,39.381,0,0,1,480,135.38Z"/><path d="M327.38,128V112A23.406,23.406,0,0,0,304,135.38h16A7.389,7.389,0,0,1,327.38,128Z"/><path d="M304.182,152.349a192.1,192.1,0,0,0,11.8,58.43l15-5.558a176.128,176.128,0,0,1-10.823-53.57Z"/><path d="M488,360H464v-8a31.976,31.976,0,0,0-48-27.695V320a32,32,0,0,0-64,0v40H264V320a32,32,0,0,0-64,0v4.305A31.976,31.976,0,0,0,152,352v8H128a8,8,0,0,0-8,8v48a8,8,0,0,0,8,8h24v8A31.976,31.976,0,0,0,200,459.7V464a32,32,0,0,0,64,0V424h88v40a32,32,0,0,0,64,0V459.7A31.976,31.976,0,0,0,464,432v-8h24a8,8,0,0,0,8-8V368A8,8,0,0,0,488,360ZM136,408V376h16v32Zm48,40a16.019,16.019,0,0,1-16-16V352a16,16,0,0,1,32,0v80A16.019,16.019,0,0,1,184,448Zm64,16a16,16,0,0,1-32,0V320a16,16,0,0,1,32,0Zm16-56V376h88v32Zm136,56a16,16,0,0,1-32,0V320a16,16,0,0,1,32,0V464Zm48-32a16,16,0,0,1-32,0V352a16,16,0,0,1,32,0Zm32-24H464V376h16Z"/><path d="M244,56a44.3,44.3,0,0,0-8.772.876,43.737,43.737,0,0,0-23.2,12.947,44.011,44.011,0,0,0-75.788,34.8A48,48,0,0,0,144,200H256V184H204a20,20,0,0,1,0-40h20.784a41.7,41.7,0,0,0,11.5,21.657L247.6,154.343a25.967,25.967,0,0,1,0-36.686l-11.315-11.314A41.7,41.7,0,0,0,224.784,128H204a35.981,35.981,0,0,0-29.917,56H144a32,32,0,0,1-3.1-63.847,44.406,44.406,0,0,0,14.655,16.432l8.9-13.3a28.243,28.243,0,0,1-10.824-13.869c-.01-.031-.015-.062-.026-.093A28,28,0,0,1,203,84.048,44.155,44.155,0,0,0,200,100a43.5,43.5,0,0,0,.271,4.907l15.9-1.814A27.57,27.57,0,0,1,216,100a27.92,27.92,0,0,1,3.075-12.766,28.615,28.615,0,0,1,19.33-14.676,28.053,28.053,0,0,1,32,18.109l15.084-5.334A44.078,44.078,0,0,0,244,56Z"/></g></svg>
